<svg width="111" height="89" viewBox="0 0 111 89" fill="none" xmlns="http://www.w3.org/2000/svg">
<g clip-path="url(#clip0_94_112)">
<path d="M110.288 4.45163L110.283 4.44638C110.257 4.42274 110.231 4.40173 110.202 4.3781L105.702 0.543701L104.288 4.56456L21.8192 22.7674C20.3636 23.2796 18.8218 25.2729 18.3549 27.2269L4.98792 83.7159L0.508789 84.7323L4.94357 88.5194C5.03748 88.6245 5.14444 88.7164 5.25922 88.7899C5.50444 88.9423 5.79661 89.0184 6.12792 88.9948L87.5636 83.4691C87.8401 83.4507 88.1166 83.4113 88.3905 83.3535C91.0749 82.7862 93.6288 80.4121 94.2653 77.7122L110.864 7.43511C111.177 6.10883 110.935 5.08194 110.288 4.45163Z" fill="#292F3D"/>
<path d="M102.822 0.120977C102.535 0.181382 102.235 0.265424 101.927 0.375728L17.4233 19.0251C15.9677 19.5372 14.4259 21.5306 13.959 23.4845L0.143324 81.8671C-0.323632 83.829 0.378107 85.3444 1.73724 85.2524L83.1729 79.7267C83.4494 79.7083 83.7259 79.6689 83.9998 79.6112C86.6842 79.0439 89.2381 76.6697 89.8746 73.9699L106.471 3.69274C107.102 1.01917 105.482 -0.443677 102.822 0.120977Z" fill="#373F51"/>
<path d="M105.537 0.430664C105.934 1.06098 106.049 1.93553 105.796 3.01232L89.1991 73.2894C88.5625 75.9893 86.0086 78.3634 83.3243 78.9307C83.0504 78.9885 82.7738 79.0279 82.4973 79.0463L1.06168 84.572C0.782554 84.5904 0.532119 84.5379 0.312988 84.4302C0.607771 84.9791 1.10081 85.2969 1.73994 85.2522L83.1756 79.7265C83.4521 79.7081 83.7286 79.6687 84.0025 79.6109C86.6869 79.0436 89.2408 76.6695 89.8773 73.9696L106.471 3.69253C106.836 2.14564 106.445 1.00845 105.537 0.430664Z" fill="#4B5262"/>
<path d="M25.328 37.4117L23.7236 36.1195L22.9984 37.5719L23.815 34.0736L22.2106 32.7815L21.7228 34.2155L20.901 37.7137L19.341 37.8214L15.8532 52.6573L17.7836 52.5102L15.3706 54.6533L16.975 55.9454L19.0776 55.7852L19.881 52.3527L21.8715 52.203L25.328 37.4117Z" fill="#60B273"/>
<path d="M23.7238 36.1195L21.3942 36.2797L22.2108 32.7815L20.1186 32.9233L19.2969 36.4215L17.7368 36.5292L14.249 51.3652L16.1795 51.2181L15.3708 54.6533L17.4734 54.4931L18.2768 51.0605L20.2673 50.9108L23.7238 36.1195Z" fill="#80ED99"/>
<path d="M88.9907 28.7895L87.3864 27.4974L86.6612 28.9471L89.2359 16.635L87.6316 15.3429L87.1438 16.7795L84.5664 29.0889L83.0038 29.1966L77.6638 53.0802L79.5942 52.9357L77.1812 55.0762L78.7855 56.3683L80.8881 56.2107L83.5438 43.7306L85.5368 43.5782L88.9907 28.7895Z" fill="#60B273"/>
<path d="M87.3864 27.4974L85.0568 27.655L87.6316 15.3429L85.5394 15.4873L82.962 27.7994L81.3994 27.9045L77.9142 42.7404L79.842 42.596L77.1812 55.0762L79.2838 54.9186L81.9394 42.4384L83.9325 42.2887L87.3864 27.4974Z" fill="#80ED99"/>
<path d="M76.2159 36.8128L74.6116 35.5206L73.8863 36.973L74.7029 33.4748L73.0985 32.1826L72.6133 33.6166L71.789 37.1148L70.229 37.2225L64.5498 63.8111L66.4803 63.6667L64.0698 65.8071L65.6742 67.0993L67.7742 66.9417L68.5777 63.5065L70.5681 63.3568L76.2159 36.8128Z" fill="#60B273"/>
<path d="M74.6114 35.5206L72.2818 35.6808L73.0984 32.1826L71.0088 32.3244L70.1871 35.8227L68.6244 35.9303L62.9453 62.519L64.8757 62.3745L64.0697 65.8071L66.1697 65.6495L66.9731 62.2143L68.9662 62.0646L74.6114 35.5206Z" fill="#80ED99"/>
<path d="M54.968 41.527L53.3637 40.2349L52.6384 41.6846L53.455 38.1864L51.8506 36.8969L51.3628 38.3308L50.541 41.829L48.9784 41.9341L43.9697 63.3437L45.9002 63.1966L43.4897 65.3397L45.0941 66.6318L47.1941 66.4716L47.9976 63.039L49.988 62.8893L54.968 41.527Z" fill="#60B273"/>
<path d="M53.3635 40.2349L51.0339 40.3925L51.8505 36.8969L49.7583 37.0387L48.9365 40.5369L47.3765 40.642L42.3652 62.0515L44.2957 61.9045L43.4896 65.3397L45.5896 65.1795L46.3931 61.7469L48.3861 61.5972L53.3635 40.2349Z" fill="#80ED99"/>
<path d="M45.501 38.0025L43.8967 36.7104L43.1714 38.1627L46.4167 24.2013L44.8123 22.9092L44.3271 24.3431L41.0741 38.3045L39.5141 38.4122L37.148 48.8859L39.0784 48.7414L36.668 50.8819L38.2723 52.174L40.3723 52.0164L41.1758 48.5839L43.1688 48.4315L45.501 38.0025Z" fill="#60B273"/>
<path d="M43.8968 36.7104L41.5673 36.8706L44.8125 22.9092L42.7229 23.051L39.4699 37.0124L37.9099 37.1201L35.5464 47.5938L37.4742 47.4493L36.6681 50.8819L38.7707 50.7243L39.5716 47.2917L41.5646 47.142L43.8968 36.7104Z" fill="#80ED99"/>
<path d="M34.2365 43.6464L32.6321 42.3543L31.9069 43.8066L32.7234 40.3084L31.1191 39.0162L30.6313 40.4528L29.8095 43.9484L28.2469 44.0561L23.1965 66.2746L25.1269 66.1301L21.8608 72.4096L23.4652 73.7018L25.5652 73.5442L27.2243 65.9699L29.2148 65.8202L34.2365 43.6464Z" fill="#FF36AB"/>
<path d="M32.6323 42.3543L30.3027 42.5145L31.1192 39.0162L29.0271 39.1607L28.2053 42.6563L26.6453 42.764L21.5923 64.9824L23.5227 64.838L21.861 72.4096L23.9636 72.252L25.6201 64.6804L27.6105 64.5281L32.6323 42.3543Z" fill="#FF74D4"/>
<path d="M61.5549 58.0543L59.9506 56.7648L59.2228 58.2145L62.2358 43.7987L60.6315 42.5066L60.1436 43.9405L57.128 58.3563L55.5654 58.464L53.8436 66.2746L55.7715 66.1301L52.5054 72.4096L54.1097 73.7018L56.2123 73.5442L57.8688 65.9699L59.8619 65.8202L61.5549 58.0543Z" fill="#FF36AB"/>
<path d="M59.9506 56.7648L57.6184 56.9223L60.6314 42.5066L58.5393 42.6484L55.5236 57.0642L53.961 57.1718L52.2393 64.9825L54.1671 64.838L52.5053 72.4096L54.608 72.252L56.2645 64.6804L58.2575 64.5281L59.9506 56.7648Z" fill="#FF74D4"/>
</g>
<defs>
<clipPath id="clip0_94_112">
<rect width="111" height="89" fill="white"/>
</clipPath>
</defs>
</svg>
