<svg width="826" height="143" viewBox="0 0 826 143" fill="none" xmlns="http://www.w3.org/2000/svg">
<path d="M292.779 4.46787H331.6C355.68 4.46787 374.037 11.6094 374.037 33.4461C374.037 44.2042 368.04 55.2828 358.06 58.762V59.5403C370.741 62.5617 380.08 71.3971 380.08 87.2366C380.08 110.813 360.441 121.754 334.621 121.754H292.825V4.42212L292.779 4.46787ZM329.86 52.2614C344.739 52.2614 351.239 46.2643 351.239 36.8795C351.239 26.5792 344.281 22.4591 330.181 22.4591H316.264V52.2156H329.86V52.2614ZM332.516 103.763C348.493 103.763 357.236 98.0406 357.236 85.8633C357.236 74.4643 348.676 69.5659 332.516 69.5659H316.218V103.763H332.516Z" fill="#191919"/>
<path d="M387.952 97.7201C387.952 78.7217 403.288 68.7418 439.087 64.9421C438.63 56.2441 434.83 49.5603 423.889 49.5603C415.648 49.5603 407.729 53.1769 399.488 57.9379L391.111 42.5561C401.548 36.0555 414.229 30.8367 428.146 30.8367C450.624 30.8367 462.206 44.2957 462.206 69.9321V121.708H443.208L441.605 112.186H440.964C433.182 118.824 424.347 123.906 414.184 123.906C398.344 123.906 387.906 112.644 387.906 97.6285L387.952 97.7201ZM439.133 97.0792V79.1795C417.434 81.8805 410.155 87.8775 410.155 95.7973C410.155 102.756 415.053 105.777 421.874 105.777C428.695 105.777 433.457 102.618 439.133 97.0792Z" fill="#191919"/>
<path d="M474.11 77.44C474.11 48.7822 494.391 30.8826 515.449 30.8826C539.849 30.8826 552.484 48.7823 552.484 73.1826C552.484 77.6231 552.027 81.8806 551.386 83.9406H496.771C498.694 98.4984 508.17 106.098 521.309 106.098C528.588 106.098 534.951 103.9 541.268 99.9176L549.188 114.155C540.49 120.152 529.228 123.952 518.287 123.952C493.429 123.952 474.11 106.693 474.11 77.3942V77.44ZM532.57 68.4215C532.57 56.5647 527.168 48.9653 515.769 48.9653C506.43 48.9653 498.19 55.6033 496.451 68.4215H532.57Z" fill="#191919"/>
<path d="M567.226 4.46777H608.061C632.599 4.46777 652.101 13.1659 652.101 40.084C652.101 57.6633 643.22 68.6045 629.761 73.8233L657.137 121.8H630.997L606.917 77.4398H590.62V121.8H567.181V4.46777H567.226ZM605.864 58.945C620.925 58.945 629.303 52.6275 629.303 40.084C629.303 27.5405 620.925 23.1457 605.864 23.1457H590.665V58.945H605.864Z" fill="#191919"/>
<path d="M661.302 97.7201C661.302 78.7217 676.638 68.7418 712.437 64.9421C711.979 56.2441 708.18 49.5603 697.238 49.5603C688.998 49.5603 681.078 53.1769 672.838 57.9379L664.46 42.5561C674.898 36.0555 687.579 30.8367 701.496 30.8367C723.973 30.8367 735.555 44.2957 735.555 69.9321V121.708H716.557L714.955 112.186H714.314C706.531 118.824 697.696 123.906 687.533 123.906C671.693 123.906 661.256 112.644 661.256 97.6285L661.302 97.7201ZM712.483 97.0792V79.1795C690.783 81.8805 683.505 87.8775 683.505 95.7973C683.505 102.756 688.403 105.777 695.224 105.777C702.045 105.777 706.806 102.618 712.483 97.0792Z" fill="#191919"/>
<path d="M747.457 77.44C747.457 48.7822 767.737 30.8826 788.796 30.8826C813.196 30.8826 825.831 48.7823 825.831 73.1826C825.831 77.6231 825.373 81.8806 824.732 83.9406H770.118C772.04 98.4984 781.517 106.098 794.655 106.098C801.934 106.098 808.298 103.9 814.615 99.9176L822.535 114.155C813.837 120.152 802.575 123.952 791.634 123.952C766.776 123.952 747.457 106.693 747.457 77.3942V77.44ZM805.917 68.4215C805.917 56.5647 800.515 48.9653 789.116 48.9653C779.777 48.9653 771.537 55.6033 769.797 68.4215H805.917Z" fill="#191919"/>
<path d="M0 0V87.6233C0 87.6233 6.75162 93.1722 20.065 100.894V0H0Z" fill="#191919"/>
<path d="M25.5938 0V103.996C39.4557 111.57 58.8454 120.622 83.6787 128.449V0H25.5938Z" fill="#6C3B41"/>
<path d="M96.358 0V132.226C101.464 133.64 106.76 134.99 112.267 136.277C129.061 140.18 144.421 141.826 158.156 142.058V0.0211033H96.3369L96.358 0Z" fill="#B8CA8E"/>
<path d="M170.858 141.868C209.912 140.033 232.678 127.162 232.678 127.162V0H170.858V141.868Z" fill="#C33631"/>
</svg>
