<svg width="91" height="26" viewBox="0 0 91 26" fill="none" xmlns="http://www.w3.org/2000/svg">
<path fill-rule="evenodd" clip-rule="evenodd" d="M26.7951 6.25463V0.5L3.10952 6.25463H26.7951ZM0 6.71524V18.3589C0 18.3589 0.885752 19.0871 2.63157 20.099V6.71524H0ZM21.3023 6.71524H3.11403V20.3022C5.0406 21.3302 8.29167 22.919 11.6887 23.9341C12.2111 24.0904 12.7508 24.2416 13.3065 24.3876C13.7671 24.5085 14.2386 24.6256 14.723 24.7375C17.1565 25.3017 19.3629 25.5075 21.3023 25.4998C27.0936 25.476 30.5093 23.5443 30.5093 23.5443V6.71524H21.3023Z" fill="white"/>
<path d="M40.1855 20.5V18.8984L47.4512 8.48828H40.1465V6.35938H50.6152V7.94141L43.3496 18.3516H50.6543V20.5H40.1855ZM52.959 20.5V6.35938H55.498V12.8633H55.6934L61.2207 6.35938H64.3262L58.8574 12.707L64.3848 20.5H61.3184L57.0801 14.4258L55.498 16.2812V20.5H52.959ZM67.7441 20.5H65.0293L70.0098 6.35938H73.1348L78.1348 20.5H75.4199L74.248 17.0039H68.916L67.7441 20.5ZM69.5996 14.9531H73.5645L71.6309 9.25H71.5137L69.5996 14.9531ZM79.8145 20.5V6.35938H85.127C88.3691 6.35938 90.1074 8.33203 90.1074 11.0469C90.1074 13.7617 88.3496 15.7148 85.0879 15.7148H82.3535V20.5H79.8145ZM82.3535 13.625H84.7363C86.6504 13.625 87.5098 12.5508 87.5098 11.0469C87.5098 9.52344 86.6504 8.48828 84.7363 8.48828H82.3535V13.625Z" fill="white"/>
</svg>
