<svg xmlns="http://www.w3.org/2000/svg" width="60" height="60" viewBox="0 0 60 60" fill="none">
  <!-- Coinbase circle icon with "C" cutout -->
  <circle cx="30" cy="30" r="26" fill="white"/>
  <circle cx="30" cy="30" r="18" fill="black"/>
  <!-- White "C" shape inside -->
  <path d="M30,20 C24.5,20 20,24.5 20,30 C20,35.5 24.5,40 30,40 C33.5,40 36.5,38.2 38,35.5 L33,33 C32.2,34.2 31.2,35 30,35 C27.2,35 25,32.8 25,30 C25,27.2 27.2,25 30,25 C31.2,25 32.2,25.8 33,27 L38,24.5 C36.5,21.8 33.5,20 30,20 Z" fill="white"/>
</svg>
