<svg width="1571" height="358" viewBox="0 0 1571 358" fill="none" xmlns="http://www.w3.org/2000/svg">
<path d="M767.407 319.646H548V278.048L695.825 85.1794H562.747V39.2041H759.451V80.0063L611.626 273.671H767.398V319.646H767.407Z" fill="#1a1a1a"/>
<path d="M983.453 319.646L885.29 190.873L851.538 217.34V319.646H794.308V39.2041H851.538V166.386L974.722 39.2041H1041.46L924.68 157.826L1050.97 319.646H983.453Z" fill="#1a1a1a"/>
<path d="M1263.31 319.646L1239.07 247.99H1134.9L1110.65 319.646H1053.42L1153.13 39.2041H1220.64L1319.97 319.646H1263.32H1263.31ZM1186.88 82.3939L1185.72 86.7712C1184.43 91.5464 1182.87 96.9879 1181.06 103.096C1179.25 109.204 1168.13 142.769 1147.7 203.81H1226.27L1199.31 123.196L1190.96 96.1273L1186.89 82.3939H1186.88Z" fill="#1a1a1a"/>
<path d="M1570.72 127.971C1570.72 146.017 1566.71 162.138 1558.7 176.334C1550.68 190.53 1539.21 201.515 1524.26 209.27C1509.32 217.035 1491.57 220.912 1471.01 220.912H1403.11V319.637H1345.88V39.2041H1468.67C1501.39 39.2041 1526.58 46.9314 1544.23 62.3954C1561.88 77.8593 1570.71 99.7179 1570.71 127.981L1570.72 127.971ZM1513.1 128.971C1513.1 99.5143 1496.15 84.7815 1462.28 84.7815H1403.11V175.742H1463.83C1479.6 175.742 1491.76 171.726 1500.29 163.702C1508.83 155.679 1513.09 144.092 1513.09 128.971H1513.1Z" fill="#1a1a1a"/>
<path d="M383 0V82H44L383 0Z" fill="#1a1a1a"/>
<path d="M304.592 89H45V283.567C72.497 298.287 118.898 321.04 167.383 335.576C174.838 337.814 182.54 339.979 190.473 342.07C197.046 343.802 203.776 345.478 210.689 347.081C245.421 355.16 276.912 358.108 304.592 357.997C387.249 357.656 436 329.994 436 329.994V89H304.592Z" fill="#1a1a1a"/>
<path d="M0 89V256.038C0 256.038 12.7903 266.484 38 281V89H0Z" fill="#1a1a1a"/>
</svg>
