<svg width="148" height="131" viewBox="0 0 148 131" fill="none" xmlns="http://www.w3.org/2000/svg">
<g clip-path="url(#clip0_94_139)">
<path d="M15.2291 114.8L88.7187 118.332C99.9204 118.87 111.649 110.174 114.917 98.8983L136.327 24.9477C138.155 18.6349 136.938 12.8547 133.549 8.89221L144.378 21.5366C147.767 25.4944 148.983 31.2793 147.156 37.5921L125.745 111.543C122.482 122.813 110.754 131.514 99.5475 130.977L26.0579 127.444C21.126 127.206 17.117 125.22 14.4553 122.108L3.62646 109.463C6.28822 112.575 10.2972 114.561 15.2291 114.8Z" fill="#4BB9C1"/>
<path d="M48.4568 0.0232438C37.2504 -0.51412 25.5219 8.18651 22.2588 19.4618L0.848203 93.4124C-2.41489 104.683 4.01807 114.257 15.2291 114.8L88.7187 118.332C99.9204 118.869 111.649 110.174 114.917 98.8982L136.327 24.9476C139.59 13.677 133.153 4.09786 121.951 3.5605L48.4568 0.0232438Z" fill="url(#paint0_linear_94_139)"/>
<path d="M0.848308 93.4126L22.2589 19.4619C25.522 8.18663 37.2505 -0.513998 48.4569 0.0233658L121.946 3.55595C126.277 3.76622 129.89 5.32691 132.51 7.80813C130.02 5.90166 126.827 4.71946 123.107 4.5419L49.6176 1.00931C37.9404 0.700912 26.5755 8.3969 23.4196 20.4479L2.00904 94.4032C0.00456516 101.319 1.65942 107.59 5.8222 111.533C0.820339 107.706 -1.32864 100.94 0.85297 93.4172L0.848308 93.4126Z" fill="#C7F9CC"/>
<path d="M63.8122 36.2277C65.2387 30.9895 70.6135 26.9102 75.7878 27.1252C78.0487 27.2186 79.9086 28.1205 81.1626 29.541L83.3349 31.9988C82.0809 30.5783 80.221 29.6812 77.9601 29.583C72.7858 29.3681 67.411 33.4521 65.9845 38.6855L64.7446 43.2461L62.5723 40.7882L63.8122 36.2277Z" fill="#4BB9C1"/>
<path d="M88.9708 37.2697C90.318 32.3212 89.2831 27.798 86.5654 24.7234L88.7377 27.1812C91.4508 30.2512 92.4903 34.7744 91.1431 39.7275L89.9031 44.2881L87.7308 41.8303L88.9708 37.2697Z" fill="#4BB9C1"/>
<path d="M58.4933 73.0021L60.4885 65.6706C59.5795 64.3996 59.2671 62.6661 59.7799 60.7783C60.7868 57.0775 64.5767 54.1991 68.2407 54.3486C68.4877 54.3579 68.7348 54.3813 68.9818 54.4234C70.082 54.5962 71.0143 55.0682 71.7322 55.7457C71.8347 55.8439 71.9326 55.942 72.0258 56.0495L74.1981 58.5073C73.4523 57.6662 72.4128 57.0821 71.1541 56.8812C70.9071 56.8438 70.66 56.8205 70.4129 56.8064C66.749 56.6522 62.9591 59.5353 61.9522 63.2361C61.4394 65.1239 61.7518 66.8622 62.6608 68.1285L60.6656 75.46C60.2694 76.9085 60.5724 78.2309 61.3648 79.1281L59.1926 76.6702C58.4001 75.7731 58.0971 74.4507 58.4933 73.0021Z" fill="#4BB9C1"/>
<path d="M41.4366 89.7632L75.6478 91.179C79.6708 91.3472 83.8289 88.1885 84.9337 84.1185L94.35 49.5403C95.4595 45.475 93.0961 42.0452 89.0731 41.877L87.7353 41.8209L88.9753 37.2604C91.3666 28.471 86.2436 21.0226 77.5451 20.6628C68.8513 20.303 59.8265 27.1626 57.4351 35.952L56.1951 40.5126L54.8573 40.4565C50.8343 40.2883 46.6762 43.4471 45.5714 47.517L36.1551 82.0952C35.0456 86.1605 37.409 89.5903 41.432 89.7585L41.4366 89.7632ZM62.5721 40.7836L63.8121 36.223C65.2386 30.9849 70.6134 26.9056 75.7877 27.1205C80.962 27.3355 84.02 31.7652 82.5936 37.0034L81.3536 41.5639L62.5675 40.7836H62.5721ZM58.4933 73.0021L60.4884 65.6706C59.5794 64.3996 59.2671 62.666 59.7799 60.7782C60.7868 57.0774 64.5766 54.199 68.2406 54.3485C68.4877 54.3579 68.7347 54.3812 68.9818 54.4233C71.9699 54.8952 73.7552 57.554 73.1865 60.6941C72.7996 62.8389 71.4664 64.7594 69.7137 66.0537L67.7185 73.3852C67.0193 75.9599 64.3855 77.9598 61.8356 77.857C59.2857 77.7496 57.7894 75.5767 58.4886 73.0021H58.4933Z" fill="#F9FEFA"/>
<path d="M41.4367 89.7631L75.648 91.179C79.6709 91.3472 83.829 88.1884 84.9338 84.1185L94.3502 49.5403C94.9748 47.2506 94.4993 45.1666 93.2454 43.7461L95.4177 46.2039C96.6716 47.6198 97.1471 49.7085 96.5224 51.9981L87.1061 86.5763C85.9966 90.6416 81.8432 93.8004 77.8203 93.6368L43.609 92.221C42.2898 92.1649 41.1477 91.7631 40.2527 91.0949C39.9544 90.8753 39.6793 90.6229 39.4369 90.3472L37.2646 87.8894C38.2389 88.9921 39.6793 89.6884 41.4367 89.7585V89.7631Z" fill="#4BB9C1"/>
</g>
<defs>
<linearGradient id="paint0_linear_94_139" x1="100.396" y1="110.809" x2="34.5122" y2="4.39519" gradientUnits="userSpaceOnUse">
<stop stop-color="#6DF5E1"/>
<stop offset="0.22" stop-color="#6DF5E1"/>
<stop offset="0.69" stop-color="#BDA1F3"/>
<stop offset="1" stop-color="#BDA1F3"/>
</linearGradient>
<clipPath id="clip0_94_139">
<rect width="148" height="131" fill="white"/>
</clipPath>
</defs>
</svg>
